<?xml version="1.0" encoding="UTF-8" standalone="no"?>
<svg
   xmlns:dc="http://purl.org/dc/elements/1.1/"
   xmlns:cc="http://creativecommons.org/ns#"
   xmlns:rdf="http://www.w3.org/1999/02/22-rdf-syntax-ns#"
   xmlns:svg="http://www.w3.org/2000/svg"
   xmlns="http://www.w3.org/2000/svg"
   xmlns:sodipodi="http://sodipodi.sourceforge.net/DTD/sodipodi-0.dtd"
   xmlns:inkscape="http://www.inkscape.org/namespaces/inkscape"
   width="64"
   height="64"
   version="1.1"
   id="svg40"
   sodipodi:docname="futures-icon.svg"
   inkscape:version="1.0.1 (3bc2e813f5, 2020-09-07)"
   inkscape:export-filename="C:\Users\JamesMcNally\Downloads\futures-icon-32px.png"
   inkscape:export-xdpi="48"
   inkscape:export-ydpi="48">
  <metadata
     id="metadata46">
    <rdf:RDF>
      <cc:Work
         rdf:about="">
        <dc:format>image/svg+xml</dc:format>
        <dc:type
           rdf:resource="http://purl.org/dc/dcmitype/StillImage" />
        <dc:title></dc:title>
      </cc:Work>
    </rdf:RDF>
  </metadata>
  <defs
     id="defs44" />
  <sodipodi:namedview
     pagecolor="#ffffff"
     bordercolor="#666666"
     borderopacity="1"
     objecttolerance="10"
     gridtolerance="10"
     guidetolerance="10"
     inkscape:pageopacity="0"
     inkscape:pageshadow="2"
     inkscape:window-width="1920"
     inkscape:window-height="1017"
     id="namedview42"
     showgrid="false"
     inkscape:zoom="13.28125"
     inkscape:cx="17.505882"
     inkscape:cy="25.976471"
     inkscape:window-x="-8"
     inkscape:window-y="-8"
     inkscape:window-maximized="1"
     inkscape:current-layer="g38" />
  <g
     id="g32">
    <title
       id="title29">background</title>
    <rect
       fill="none"
       id="canvas_background"
       height="402"
       width="582"
       y="-1"
       x="-1" />
  </g>
  <g
     id="g38">
    <title
       id="title34">Layer 1</title>
    <rect
       id="svg_1"
       width="64"
       height="64"
       fill="none" />
    <path
       d="m 33.19866,17.8848 -3.1914,13.4238 -0.0234,0.084 c -0.2344,0.8554 -0.0664,1.8066 0.5391,2.543 l 7.2402,8.8358 c 1.686,2.0576 4.9668,0.057 3.8945,-2.3866 l -4.4004,-9.1368 0.4492,-12.625 c 0.1413,-2.7128 -3.7686,-3.3666 -4.5078,-0.7382 z"
       id="path50"
       style="fill:#f7b22e;fill-opacity:1" />
    <path
       d="m 33.70646,4 c -4.7812,0 -9.2637,1.2344 -13.2031,3.3594 l 2.5703,7.7365 C 26.15956,13.1484 29.79626,12 33.70646,12 c 11.0273,0 20,8.9726 20,20 0,11.0274 -8.9727,20 -20,20 -11.0273,0 -20.0352,-8.9726 -20.0352,-20 0,-2.3438 0.4297,-4.582 1.1758,-6.67 l 3.5508,2.7052 c 1.1946,0.9076 2.9014,-0.1368 2.6113,-1.6212 -1.1602,-6.0058 -3.6621,-12.4804 -4.2676,-13.375 -0.3672,-0.5448 -1.0254,-0.8144 -1.6719,-0.6932 -1.0586,0.203 -7.3984,3.0096 -12.4766,6.4394 -1.2517,0.8488 -0.7896,2.7922 0.7031,2.994 l 4.1172,0.5568 c -1.121,3.0116 -1.5038,6.2636 -1.5038,9.664 0,15.4394 12.3574,28 27.7969,28 15.4395,0 28,-12.5606 28,-28 0,-15.4394 -12.5606,-28 -28,-28 z"
       id="svg_3"
       style="fill:#666666" />
  </g>
</svg>
